<svg id="Layer_1" data-name="Layer 1" xmlns="http://www.w3.org/2000/svg" xmlns:xlink="http://www.w3.org/1999/xlink" viewBox="0 0 1024 1024"><defs><style>.cls-1{fill:url(#linear-gradient);}.cls-2{fill:url(#linear-gradient-2);}.cls-3{fill:url(#linear-gradient-3);}.cls-4{fill:url(#linear-gradient-4);}</style><linearGradient id="linear-gradient" x1="564.17" y1="22.4" x2="374.54" y2="1187.29" gradientTransform="matrix(1, 0, 0, 1.03, 31.9, 91.01)" gradientUnits="userSpaceOnUse"><stop offset="0" stop-color="#2affba"/><stop offset="0.02" stop-color="#31f4bd"/><stop offset="0.14" stop-color="#53bccc"/><stop offset="0.25" stop-color="#718ada"/><stop offset="0.37" stop-color="#8a5fe5"/><stop offset="0.49" stop-color="#9f3def"/><stop offset="0.61" stop-color="#af22f6"/><stop offset="0.74" stop-color="#bb0ffb"/><stop offset="0.87" stop-color="#c204fe"/><stop offset="1" stop-color="#c400ff"/></linearGradient><linearGradient id="linear-gradient-2" x1="554.29" y1="20.79" x2="364.65" y2="1185.68" xlink:href="#linear-gradient"/><linearGradient id="linear-gradient-3" x1="561.1" y1="21.9" x2="371.47" y2="1186.79" xlink:href="#linear-gradient"/><linearGradient id="linear-gradient-4" x1="530.57" y1="16.93" x2="340.93" y2="1181.82" xlink:href="#linear-gradient"/></defs><path class="cls-1" d="M275.87,880.64l272-184.16,120.79,114,78.55-56.88,184.6,125.1a485.54,485.54,0,0,0,55.81-138.27c-64.41-21.42-127-48.15-185.92-73.32-97-41.44-188.51-80.52-253.69-80.52-59.57,0-71.53,18.85-89.12,55C442,676.14,421.05,719.19,319.2,719.19c-81.26,0-159.95-29.93-243.27-61.61-17.07-6.5-34.57-13.14-52.49-19.69A486.06,486.06,0,0,0,95.19,884l91.29-62.16Z"/><path class="cls-2" d="M295.26,506.52c53.69,0,64.49-17.36,80.41-50.63,15.46-32.33,34.7-72.56,128.36-72.56,75,0,154.6,33.2,246.78,71.64,74.85,31.21,156.89,65.34,241,81.63a485.59,485.59,0,0,0-64.23-164.85c-108.88-6-201.82-43.35-284.6-76.69-66.77-26.89-129.69-52.22-182.84-52.22-46.88,0-56.43,15.74-70.55,45.89-13.41,28.65-31.79,67.87-118.24,67.87-44.25,0-90.68-13.48-141-33.11A488.33,488.33,0,0,0,62.86,435.7c8.3,3.38,16.55,6.74,24.68,10.08C163.88,477,235.84,506.52,295.26,506.52Z"/><path class="cls-3" d="M319.2,687.81c61.24,0,73.38-19.09,91.18-55.66,16.7-34.28,37.48-76.95,137.58-76.95,81.4,0,174.78,39.89,282.9,86.09,52.19,22.29,107.38,45.84,163.42,65.43A483,483,0,0,0,997,570.22C898.41,554.4,806,516,722.27,481.05,640.39,446.91,563.19,414.72,504,414.72c-53.25,0-64,17.29-79.84,50.42-15.51,32.42-34.8,72.77-128.93,72.77-75.08,0-153.29-32-236.08-66l-8.91-3.64A486.91,486.91,0,0,0,24,601.68c27.31,9.55,53.55,19.52,79,29.19C183.24,661.42,252.61,687.81,319.2,687.81Z"/><path class="cls-4" d="M341,279.65c13.49-28.78,31.95-68.19,119.16-68.19,68.59,0,137.73,27.84,210.92,57.32C741.22,297,819.21,328.36,904.8,338.15,815.77,218,673,140,511.88,140c-141.15,0-268.24,59.92-357.45,155.62,44,17.32,84.15,29.6,116.89,29.6C317.56,325.22,326.54,310.43,341,279.65Z"/></svg>